<?xml version="1.0" encoding="utf-8"?>
<svg viewBox="0 0 1200 550" xmlns="http://www.w3.org/2000/svg">
  <defs>
    <style>
      .box { fill: #f5f5f5; stroke: #333; stroke-width: 2; }
      .service-box { fill: #e8f4f8; stroke: #0066cc; stroke-width: 2; }
      .ingestion { fill: #fff3cd; stroke: #ff9800; stroke-width: 2; }
      .sink { fill: #f0f4f8; stroke: #2196f3; stroke-width: 2; }
      .text { font-family: Arial, sans-serif; font-size: 14px; fill: #333; }
      .title { font-family: Arial, sans-serif; font-size: 16px; font-weight: bold; fill: #333; }
      .subtitle { font-family: Arial, sans-serif; font-size: 12px; fill: #666; }
      .arrow { stroke: #333; stroke-width: 2; fill: none; marker-end: url(#arrowhead); }
      .event-arrow { stroke: #ff6b6b; stroke-width: 2; fill: none; marker-end: url(#arrowhead-red); }
      .data-arrow { stroke: #4ecdc4; stroke-width: 2; fill: none; marker-end: url(#arrowhead-teal); }
    </style>
    <marker id="arrowhead" markerWidth="10" markerHeight="10" refX="9" refY="3" orient="auto">
      <polygon points="0 0, 10 3, 0 6" fill="#333"/>
    </marker>
    <marker id="arrowhead-red" markerWidth="10" markerHeight="10" refX="9" refY="3" orient="auto">
      <polygon points="0 0, 10 3, 0 6" fill="#ff6b6b"/>
    </marker>
    <marker id="arrowhead-teal" markerWidth="10" markerHeight="10" refX="9" refY="3" orient="auto">
      <polygon points="0 0, 10 3, 0 6" fill="#4ecdc4"/>
    </marker>
  </defs>
  <rect width="1192.89" height="546.193" fill="#ffffff" style=""/>
  <text x="600" y="30" class="title" text-anchor="middle" font-size="20" style="white-space: pre;">Real-time Data Pipeline Architecture</text>
  <g id="ingestion-layer">
    <rect x="50" y="80" width="140" height="80" class="ingestion" rx="5"/>
    <text x="120" y="110" class="title" text-anchor="middle" style="white-space: pre;">React UI</text>
    <text x="120" y="130" class="subtitle" text-anchor="middle" style="white-space: pre;">Port 3000</text>
    <text x="120" y="150" class="subtitle" text-anchor="middle" style="white-space: pre;">Events</text>
    <rect x="330" y="80" width="140" height="80" class="ingestion" rx="5"/>
    <text x="400" y="110" class="title" text-anchor="middle" style="white-space: pre;">Spring Boot</text>
    <text x="400" y="130" class="subtitle" text-anchor="middle" style="white-space: pre;">API</text>
    <text x="400" y="150" class="subtitle" text-anchor="middle" style="white-space: pre;">Port 8080</text>
    <path d="M 190 120 L 330 120" class="arrow"/>
    <text x="210" y="115" class="subtitle" style="white-space: pre;">POST /api/events</text>
  </g>
  <g transform="matrix(1, 0, 0, 1, 421.319794, -171.573608)">
    <rect x="200" y="240" width="200" height="100" class="service-box" rx="5"/>
    <text x="300" y="270" class="title" text-anchor="middle" style="white-space: pre;">Apache Kafka</text>
    <text x="300" y="295" class="subtitle" text-anchor="middle" style="white-space: pre;">KRaft Mode (no ZooKeeper)</text>
    <text x="300" y="320" class="subtitle" text-anchor="middle" style="white-space: pre;">Topic: events</text>
  </g>
  <path d="M 621.827 118.173 L 471.066 119.391" class="event-arrow" style="transform-box: fill-box; transform-origin: 50% 50%;" transform="matrix(-1, 0, 0, -1, -0.000053, 0.000011)"/>
  <text x="361.32" y="209.061" class="subtitle" fill="#ff6b6b" style="white-space: pre; font-size: 12px; transform-box: fill-box; transform-origin: 50% 50%;" transform="matrix(1.230597, 0.018037, -0.59477, 0.803896, 147.208115, -94.497818)">JSON Events</text>
  <g transform="matrix(1, 0, 0, 1, 505.58374, -160.406082)">
    <g>
      <g>
        <rect x="38.274" y="455.076" width="97.361" height="74.924" class="service-box" rx="5" style=""/>
      </g>
    </g>
    <text x="90" y="480" class="title" text-anchor="middle" style="white-space: pre;">Flink</text>
    <text x="90" y="500" class="subtitle" text-anchor="middle" style="white-space: pre;">JobManager</text>
    <text x="90" y="520" class="subtitle" text-anchor="middle" style="white-space: pre;">Port 8081</text>
  </g>
  <g transform="matrix(1, 0, 0, 1, 368.527893, -159.390869)">
    <g>
      <g>
        <g>
          <g>
            <g>
              <rect x="420" y="450" width="140" height="80" class="service-box" rx="5"/>
            </g>
          </g>
        </g>
      </g>
    </g>
    <text x="490" y="480" class="title" text-anchor="middle" style="white-space: pre;">Flink</text>
    <text x="490" y="500" class="subtitle" text-anchor="middle" style="white-space: pre;">TaskManager</text>
    <text x="490" y="520" class="subtitle" text-anchor="middle" style="white-space: pre;">2 task slots</text>
  </g>
  <g transform="matrix(1, 0, 0, 1, 429.44162, -163.451767)">
    <rect x="200" y="370" width="180" height="50" class="service-box" rx="5" stroke-dasharray="5,5"/>
    <g>
      <text x="290" y="395" class="title" text-anchor="middle" style="white-space: pre;">StreamingJob</text>
    </g>
    <text x="290" y="415" class="subtitle" text-anchor="middle" style="white-space: pre;">(Kafka → Route → Sinks)</text>
  </g>
  <path d="M 724.365 173.503 L 714.365 203.503" class="arrow"/>
  <text x="658.147" y="194.594" class="subtitle" style="white-space: pre; font-size: 12px;">consume</text>
  <g transform="matrix(1, 0, 0, 1, 522.842651, -176.64975)">
    <rect x="50" y="600" width="140" height="100" class="sink" rx="5"/>
    <text x="120" y="630" class="title" text-anchor="middle" style="white-space: pre;">MinIO</text>
    <text x="120" y="655" class="subtitle" text-anchor="middle" style="white-space: pre;">S3-compatible</text>
    <text x="120" y="675" class="subtitle" text-anchor="middle" style="white-space: pre;">Bucket: images</text>
    <text x="120" y="695" class="subtitle" text-anchor="middle" style="white-space: pre;">Ports 9000/9001</text>
  </g>
  <path d="M 683.249 258.579 C 664.721 307.399 649.899 362.324 638.782 423.351" class="data-arrow" style=""/>
  <text x="570.457" y="282.741" class="subtitle" fill="#4ecdc4" font-weight="bold" style="white-space: pre; font-size: 12px;">IMAGE events</text>
  <g transform="matrix(1, 0, 0, 1, 449.746185, -176.64975)">
    <rect x="300" y="600" width="140" height="100" class="sink" rx="5"/>
    <text x="370" y="630" class="title" text-anchor="middle" style="white-space: pre;">PostgreSQL</text>
    <text x="370" y="655" class="subtitle" text-anchor="middle" style="white-space: pre;">Database: warehouse</text>
    <text x="370" y="675" class="subtitle" text-anchor="middle" style="white-space: pre;">Table: processed_events</text>
    <text x="370" y="695" class="subtitle" text-anchor="middle" style="white-space: pre;">Port 5432</text>
  </g>
  <path d="M 751.472 260.609 C 766.193 308.227 778.46 361.797 788.274 421.32" class="data-arrow" style=""/>
  <text x="765.381" y="281.726" class="subtitle" fill="#4ecdc4" font-weight="bold" style="white-space: pre; font-size: 12px;">DATA events</text>
  <g transform="matrix(1, 0, 0, 1, 385.786804, -60.913708)">
    <g>
      <g>
        <rect x="650.812" y="492.132" width="140" height="81.726" class="sink" rx="5" style="stroke-width: 2;"/>
      </g>
    </g>
    <text x="722.656" y="518.274" class="title" text-anchor="middle" style="white-space: pre; stroke-width: 1; font-size: 16px;">Grafana</text>
    <text x="723.646" y="544.163" class="subtitle" text-anchor="middle" style="white-space: pre; stroke-width: 1; font-size: 12px;">Post-hoc and  real-time<tspan x="723.64599609375" dy="1em">​</tspan>analytics</text>
  </g>
  <path d="M 889.72 471.429 C 948.299 471.519 997.115 471.62 1036.17 471.732" class="data-arrow" style="stroke-width: 2; transform-box: fill-box; transform-origin: 50% 50%;"/>
</svg>